<svg xmlns="http://www.w3.org/2000/svg" viewBox="0 0 500 500"><g id="freepik--background-simple--inject-37"><path d="M481.09,238.51c-5.07,42.94-24.67,92.87-63.83,115.8-59.16,34.67-54.21,88-169.69,111.15a237.23,237.23,0,0,1-51.21,4.84,197.66,197.66,0,0,1-25.13-2.05C97.84,457.53,48.45,406.51,30.33,344.93c-23.85-81,23.76-134,55.32-166s54.68-131.49,168-155.16a229.65,229.65,0,0,1,52.62-5c40.33,1,84.32,14.23,114.75,41.87q3.43,3.12,6.68,6.45C470,110.54,488,180,481.09,238.51Z" style="fill:#585CD3"></path><path d="M481.09,238.51c-5.07,42.94-24.67,92.87-63.83,115.8-59.16,34.67-54.21,88-169.69,111.15a237.23,237.23,0,0,1-51.21,4.84,197.66,197.66,0,0,1-25.13-2.05C97.84,457.53,48.45,406.51,30.33,344.93c-23.85-81,23.76-134,55.32-166s54.68-131.49,168-155.16a229.65,229.65,0,0,1,52.62-5c40.33,1,84.32,14.23,114.75,41.87q3.43,3.12,6.68,6.45C470,110.54,488,180,481.09,238.51Z" style="fill:#fff;opacity:0.7000000000000001"></path></g></svg>
