<svg xmlns="http://www.w3.org/2000/svg" viewBox="0 0 500 500"><g id="freepik--background-complete--inject-83"><circle cx="268" cy="333.04" r="19.67" style="fill:#ebebeb"></circle><path d="M275.16,321.37a4.45,4.45,0,0,1-.73,2.67,5.36,5.36,0,0,1-2.14,1.89,3.87,3.87,0,0,1-2.89.24,4,4,0,0,1-2.2-1.69,5.83,5.83,0,0,0,2.36,1,3.28,3.28,0,0,0,1.21,0,3.55,3.55,0,0,0,1.14-.37c.19-.09.37-.19.55-.29s.36-.23.52-.36a6.15,6.15,0,0,0,.91-.86A6.81,6.81,0,0,0,275.16,321.37Z" style="fill:#c7c7c7"></path><path d="M268.08,322.5a2.86,2.86,0,0,1,.41-1.88,3.63,3.63,0,0,1,1.48-1.35,2.73,2.73,0,0,1,2.06-.15,2.63,2.63,0,0,1,1.47,1.26,4.48,4.48,0,0,0-1.63-.61,2.74,2.74,0,0,0-1.52.27A4.7,4.7,0,0,0,268.08,322.5Z" style="fill:#c7c7c7"></path><path d="M268,342.28a2.7,2.7,0,0,1,.05,1.88,3.36,3.36,0,0,1-1.14,1.59,2.57,2.57,0,0,1-1.94.52,2.61,2.61,0,0,1-1.65-.9,4.63,4.63,0,0,0,1.68.23,2.56,2.56,0,0,0,1.39-.53,3.93,3.93,0,0,0,1-1.18A4.87,4.87,0,0,0,268,342.28Z" style="fill:#c7c7c7"></path><path d="M263.92,344.52a1.72,1.72,0,0,1-.13-1.32,2.2,2.2,0,0,1,.79-1.15,1.8,1.8,0,0,1,1.41-.36,1.7,1.7,0,0,1,1.11.73,3.82,3.82,0,0,0-1.15-.05,1.71,1.71,0,0,0-.85.36A3.39,3.39,0,0,0,263.92,344.52Z" style="fill:#c7c7c7"></path><path d="M260.91,324.59a1.76,1.76,0,0,1,.56,1.26,1.94,1.94,0,0,1-.56,1.39,1.69,1.69,0,0,1-1.44.49,2,2,0,0,1-1.24-.59,6.63,6.63,0,0,0,1.23-.08,1.56,1.56,0,0,0,.84-.42,2,2,0,0,0,.5-.86A3.68,3.68,0,0,0,260.91,324.59Z" style="fill:#c7c7c7"></path><path d="M258.47,326.5a1.13,1.13,0,0,1-.49-.87,1.34,1.34,0,0,1,.39-1,1.2,1.2,0,0,1,1.07-.34,1.26,1.26,0,0,1,.85.51,5.84,5.84,0,0,0-.83.16,1,1,0,0,0-.48.28,1.41,1.41,0,0,0-.33.5A2.88,2.88,0,0,0,258.47,326.5Z" style="fill:#c7c7c7"></path><path d="M274.58,345.32a1.74,1.74,0,0,1-1.09.85A1.89,1.89,0,0,1,272,346a1.72,1.72,0,0,1-.84-1.27,2.09,2.09,0,0,1,.28-1.35,5.54,5.54,0,0,0,.38,1.17,1.44,1.44,0,0,0,.61.71,1.92,1.92,0,0,0,.95.28A3.58,3.58,0,0,0,274.58,345.32Z" style="fill:#c7c7c7"></path><path d="M272.13,343.43a1.12,1.12,0,0,1,.72-.69,1.34,1.34,0,0,1,1.1.12,1.23,1.23,0,0,1,.6,1,1.28,1.28,0,0,1-.29.95,8.39,8.39,0,0,0-.36-.77,1.07,1.07,0,0,0-.39-.4,1.76,1.76,0,0,0-.56-.2A2.94,2.94,0,0,0,272.13,343.43Z" style="fill:#c7c7c7"></path><path d="M281.32,331.48a1.82,1.82,0,0,1-.42,1.32,2,2,0,0,1-1.34.67,1.75,1.75,0,0,1-1.41-.59,2.08,2.08,0,0,1-.53-1.27,6.06,6.06,0,0,0,1,.75,1.54,1.54,0,0,0,.91.25,2,2,0,0,0,.94-.31A3.7,3.7,0,0,0,281.32,331.48Z" style="fill:#c7c7c7"></path><path d="M278.23,331.29a1.1,1.1,0,0,1,.21-1,1.32,1.32,0,0,1,1-.51,1.21,1.21,0,0,1,1,.46,1.25,1.25,0,0,1,.29.94,5.05,5.05,0,0,0-.73-.43,1,1,0,0,0-.54-.11,1.47,1.47,0,0,0-.58.15A3.26,3.26,0,0,0,278.23,331.29Z" style="fill:#c7c7c7"></path><path d="M255.26,335.94a1.76,1.76,0,0,1-.42,1.31,1.91,1.91,0,0,1-1.34.67,1.72,1.72,0,0,1-1.41-.59,2.09,2.09,0,0,1-.53-1.26,6.54,6.54,0,0,0,1,.75,1.52,1.52,0,0,0,.91.24,2,2,0,0,0,.94-.3A3.7,3.7,0,0,0,255.26,335.94Z" style="fill:#c7c7c7"></path><path d="M252.17,335.74a1.12,1.12,0,0,1,.21-1,1.36,1.36,0,0,1,1-.51,1.22,1.22,0,0,1,1,.45,1.27,1.27,0,0,1,.29.94,6,6,0,0,0-.73-.42,1,1,0,0,0-.54-.12,1.56,1.56,0,0,0-.57.15A3,3,0,0,0,252.17,335.74Z" style="fill:#c7c7c7"></path><g style="opacity:0.4"><path d="M48.42,259.92a58.3,58.3,0,0,0,4.27,22.15C55.58,289,60.15,295.14,66.07,299a29.22,29.22,0,0,0,4.56,2.47,26.69,26.69,0,0,0,4.84,1.48,26.07,26.07,0,0,0,9.8.14c6.44-1.11,12.38-4.3,17.64-8.5.32-.27.68-.54,1-.79l.74-.71c.48-.5,1-1,1.42-1.53a27.82,27.82,0,0,0,2.61-3.49,52.05,52.05,0,0,0,4.35-8.39,145.33,145.33,0,0,0,6.37-19.83c3.57-14,6.41-28.83,9.79-43.89q1.26-5.66,2.69-11.36c.92-3.81,1.94-7.63,3-11.48a161.64,161.64,0,0,1,8.28-23.42c.92-2,1.93-4,3.13-6.07.59-1,1.26-2.07,2-3.09s1.46-2,2.25-2.89a49.56,49.56,0,0,1,10.41-9.14c7.34-4.93,14.88-8,22.12-11.12s14.38-6,21.13-9.45a99.42,99.42,0,0,0,18.73-12.21A65.22,65.22,0,0,0,237,99.24c3.68-6.19,6.36-12.94,7.13-19.51A32.17,32.17,0,0,0,244,70.3a21.87,21.87,0,0,0-3-7.86,18.26,18.26,0,0,0-12.08-8.19,25,25,0,0,0-7.65-.3,33.94,33.94,0,0,0-8,2c-.67.25-1.33.53-2,.81l-2.36,1c-1.56.7-3.11,1.43-4.62,2.21-3,1.55-6,3.22-8.91,5.09-5.83,3.69-11.56,8.16-17.94,13a172.32,172.32,0,0,1-21.12,13.91A136.18,136.18,0,0,1,132.25,102c-1,.34-2.06.61-3.09.91l-2.77.79c-1.53.45-3.08.94-4.62,1.47-3.07,1.08-6.11,2.31-9.07,3.68-11.83,5.52-22.17,13.26-29.53,23.32a76.34,76.34,0,0,0-9.37,16.63,78.17,78.17,0,0,0-3.29,9.5,98.71,98.71,0,0,0-2.34,10.18c-.6,3.49-1.07,7.07-1.36,10.71-.15,1.71-.26,3.94-.4,6s-.35,4.11-.59,6.15a173.78,173.78,0,0,1-4.55,23.91c-2,7.77-4.48,15.29-7,22.68-1.27,3.7-2.54,7.37-3.67,11A41.77,41.77,0,0,0,48.42,259.92Zm-3,0a31.83,31.83,0,0,1,.62-6.09c.35-2,.81-3.89,1.26-5.79.9-3.81,1.87-7.57,2.67-11.35s1.51-7.55,2-11.34.81-7.59,1-11.38a112.57,112.57,0,0,0-1.44-22.45c-.28-1.84-.64-3.66-1-5.47s-.79-3.49-1.21-5.64a114.41,114.41,0,0,1-1.87-12.54,92.24,92.24,0,0,1,1.21-26.22,80.71,80.71,0,0,1,9.72-25.61A89.58,89.58,0,0,1,76.15,94.84a101.23,101.23,0,0,1,22.67-15,105.35,105.35,0,0,1,12.44-5.14c2.12-.75,4.28-1.4,6.48-2l5.34-1.43a120.07,120.07,0,0,0,19.11-7,152.54,152.54,0,0,0,18.47-10.45c6.35-4,13.22-8.67,20.84-12.72a123,123,0,0,1,11.77-5.55c2-.83,4-1.58,6.1-2.3l3.08-1c1.17-.35,2.35-.69,3.54-1a53.28,53.28,0,0,1,14.94-1.61,44.9,44.9,0,0,1,15.23,3.18,39.64,39.64,0,0,1,13.23,8.74,37,37,0,0,1,8.48,13.13,39.87,39.87,0,0,1,2.53,14.59,47.75,47.75,0,0,1-2.16,13.67,74.06,74.06,0,0,1-12.05,22.58,91.46,91.46,0,0,1-8.19,9.36,105.33,105.33,0,0,1-9.25,8.1c-12.89,10-27.53,16.64-40.76,24.37-6.6,3.82-12.89,8-17.66,12.82a33,33,0,0,0-5.64,7.6q-.51,1-.93,2c-.27.65-.52,1.31-.77,2-.49,1.44-.94,3-1.35,4.66-.81,3.29-1.44,6.84-2,10.46s-1.06,7.33-1.57,11.07l-1.48,11.34c-.5,3.81-1,7.65-1.6,11.51-2.36,15.4-5.36,31.11-11,46.75a109.05,109.05,0,0,1-11.3,23.13c-1.27,1.86-2.59,3.7-4.06,5.5a51.73,51.73,0,0,1-4.78,5.21,47.17,47.17,0,0,1-5.66,4.67,34.88,34.88,0,0,1-3.18,2l-1.68.9c-.54.28-1,.48-1.53.72A62.24,62.24,0,0,1,99.12,314a47.38,47.38,0,0,1-13.55,1,39.13,39.13,0,0,1-13.08-3.26,36.15,36.15,0,0,1-5.78-3.23,39.19,39.19,0,0,1-5-4.06,50.21,50.21,0,0,1-12.61-21A81.2,81.2,0,0,1,45.42,260Z" style="fill:#ebebeb"></path><path d="M174.32,293.37a101.21,101.21,0,0,0,9.15-25c2.09-8.67,3.42-17.52,4.72-26.47.69-4.47,1.31-9,2.13-13.53a122.34,122.34,0,0,1,3.1-13.81,61.27,61.27,0,0,1,5.9-14A38.67,38.67,0,0,1,211.12,188c1.29-.85,2.68-1.56,4-2.32s2.86-1.24,4.32-1.81,3-.9,4.46-1.28,3-.55,4.49-.8a59.67,59.67,0,0,1,17.29.23A69.54,69.54,0,0,1,262,186.72a96.59,96.59,0,0,1,14.09,7.53,201.54,201.54,0,0,1,23.14,17.87l10.24,9c1.67,1.47,3.36,2.87,5,4.28l2.49,2.09,2.49,2a123.35,123.35,0,0,0,10.08,7.27,69.36,69.36,0,0,0,10.36,5.58A70.67,70.67,0,0,0,351.73,246c4.22,1,8.62,1.74,13.13,2.4,9,1.33,18.4,2.17,27.91,3.27l7.15.89c2.41.35,4.8.71,7.22,1.15a97.46,97.46,0,0,1,14.48,3.58,48.73,48.73,0,0,1,13.8,7.05,34.93,34.93,0,0,1,10.12,12,39.32,39.32,0,0,1,2.78,7.12l.9,3.63c.25,1.2.41,2.36.62,3.55a79.25,79.25,0,0,1,.81,14.37,74.88,74.88,0,0,1-2.12,14.34c-.32,1.17-.56,2.37-.94,3.52l-1.12,3.47c-.86,2.27-1.73,4.55-2.76,6.75a98.69,98.69,0,0,1-16.09,24.35,124.79,124.79,0,0,1-10.28,10.42c-3.58,3.33-7.4,6.36-11.28,9.31-2,1.42-3.92,2.91-5.95,4.25l-3,2.06-3.07,2q-6.19,3.88-12.64,7.3c-2.15,1.13-4.32,2.22-6.49,3.32s-4.39,2.08-6.6,3.07-4.43,2-6.68,2.89-4.48,1.84-6.76,2.67l-13,4.86c-2.12.79-4.2,1.64-6.29,2.46l-3.14,1.24-3.11,1.29A437.88,437.88,0,0,0,281.21,438c-7.81,4.41-15.55,9-23.95,13.64-4.19,2.35-8.63,4.63-13.49,6.8a89.56,89.56,0,0,1-16,5.46,70.34,70.34,0,0,1-18,1.81,81.36,81.36,0,0,1-17.07-2.35c-2.72-.59-5.25-1.38-7.82-2.13-1.27-.4-2.49-.84-3.73-1.25s-2.46-.83-3.74-1.36l-3.78-1.52-1.88-.78-1.87-.91a73.77,73.77,0,0,1-7.37-3.94c-1.2-.74-2.4-1.46-3.59-2.23l-3.46-2.55-1.7-1.29c-.57-.44-1.09-.95-1.64-1.43l-3.2-2.92c-1-1-2-2.16-2.94-3.23l-1.44-1.64c-.46-.56-.87-1.16-1.31-1.75-.85-1.18-1.71-2.35-2.53-3.54s-1.45-2.5-2.15-3.76A55.43,55.43,0,0,1,133,411.39l-.41-2c-.11-.67-.18-1.33-.26-2-.16-1.32-.33-2.64-.44-4a77.21,77.21,0,0,1-.05-7.75,87.7,87.7,0,0,1,1.94-14.78,127.26,127.26,0,0,1,3.92-13.82,224.1,224.1,0,0,1,10.87-25.67c1-2.05,2-4.13,3.08-6.15s2-4.08,3.13-6.09,2.14-4,3.22-6l3.23-6Zm2.66,1.36c-4.28,7.92-8.26,16-11.8,24.25l-1.32,3.09-1.24,3.12c-.85,2.07-1.6,4.18-2.36,6.28-1.55,4.19-2.89,8.45-4.13,12.72A145.2,145.2,0,0,0,151.05,370a107.36,107.36,0,0,0-.57,12.73,75.5,75.5,0,0,0,1.25,12.12c.27,2,.88,3.81,1.32,5.67l.91,2.67c.16.44.29.88.45,1.31l.57,1.26a37.66,37.66,0,0,0,5.35,9c.55.66,1.1,1.3,1.61,2l1.8,1.8c.3.3.58.62.89.9l1,.81c.67.53,1.29,1.1,2,1.62l2.15,1.48c.36.25.69.52,1.07.74l1.17.67,2.31,1.35,2.49,1.19a78,78,0,0,0,10.67,4.13c.9.32,1.91.59,2.91.86s2,.57,3,.81c1.95.43,3.91.95,5.79,1.24a53.75,53.75,0,0,0,10.76,1,41.87,41.87,0,0,0,9.78-1.31c6.47-1.65,13.69-5.17,21.52-9.36,3.91-2.07,7.9-4.27,12-6.5s8.29-4.4,12.5-6.58a407.34,407.34,0,0,1,52.91-22.43L322,388l3.41-1.12c2.27-.74,4.54-1.51,6.82-2.21l13.35-4.07c4.25-1.31,8.46-2.7,12.65-4.13l6.23-2.25c2.06-.79,4.12-1.57,6.17-2.38,4.05-1.68,8.14-3.33,12.08-5.21l3-1.38,2.93-1.45c2-.94,3.85-2,5.78-3a133.05,133.05,0,0,0,21.36-14.42,90.55,90.55,0,0,0,9.11-8.83,66.14,66.14,0,0,0,7.51-10,56.49,56.49,0,0,0,8.19-23.31,57.7,57.7,0,0,0-.06-12.53c-.15-1-.25-2.1-.43-3.12l-.62-3a31.43,31.43,0,0,0-2.08-5.54,23.68,23.68,0,0,0-7.48-8.83,35,35,0,0,0-11.2-5.13,74.51,74.51,0,0,0-13-2.2c-4.46-.37-9-.5-13.6-.46-9.18.05-18.54.62-28.19.82-4.84.07-9.76,0-14.82-.3a92.3,92.3,0,0,1-15.59-2.22c-10.91-2.67-20.31-7.56-28.82-13-16.9-10.94-30.21-24-43.73-33.61-6.73-4.79-13.39-8.61-20.25-10.71a42.89,42.89,0,0,0-10.62-1.84,21,21,0,0,0-17.58,7,46.9,46.9,0,0,0-6.93,9.76A113,113,0,0,0,200.12,231c-1.61,4.11-3.14,8.32-4.53,12.58-2.86,8.52-5.37,17.23-8.24,25.84A159.82,159.82,0,0,1,177,294.73Z" style="fill:#ebebeb"></path><path d="M452.72,89.88a64.88,64.88,0,0,1-4.31,7.79c-.74,1.2-1.52,2.33-2.3,3.47s-1.6,2.21-2.42,3.26c-1.62,2.14-3.32,4.11-5,6.08-6.86,7.75-14.33,14.4-21.65,21l-2.59,2.35-1.14,1L412.2,136c-.75.75-1.41,1.61-2.11,2.43s-1.32,1.76-2,2.68-1.26,1.86-1.84,2.86-1.17,2-1.72,3c-1.07,2-2.16,4.17-3.11,6.35-4,8.74-7,18.13-11.61,27.54a52.37,52.37,0,0,1-9.47,13.6,38.78,38.78,0,0,1-7,5.56,41.88,41.88,0,0,1-4,2.16c-.69.32-1.38.66-2.08.94l-2.12.79a51.81,51.81,0,0,1-8.66,2.18c-1.48.27-3.08.35-4.65.49s-3.1,0-4.67,0-3-.27-4.59-.44a22.54,22.54,0,0,1-2.23-.38l-2.22-.45-1.11-.24-1.07-.31-2.14-.64a36.59,36.59,0,0,1-4.16-1.47,67.81,67.81,0,0,1-14.93-8.28,82.24,82.24,0,0,1-12.23-11.14A80.54,80.54,0,0,1,293,170c-.67-1.18-1.31-2.37-1.94-3.55s-1.16-2.45-1.73-3.67-1.09-2.46-1.57-3.72-1-2.49-1.4-3.79a99.46,99.46,0,0,1-3.92-15.55,98.36,98.36,0,0,1-1.44-15.7,81.48,81.48,0,0,1,1.16-15.35,51.89,51.89,0,0,1,4.72-14.4,34,34,0,0,1,10-11.68,57.4,57.4,0,0,1,13.84-7.29,153.06,153.06,0,0,1,30.35-7.58c5.11-.78,10.19-1.3,15.22-1.62a8.57,8.57,0,0,0,1.45-.19l1.17-.21c.8-.24,1.56-.31,2.35-.59l1.16-.33c.39-.14.78-.3,1.17-.41.78-.21,1.6-.62,2.39-.87a94.23,94.23,0,0,0,10.52-5.07l5.93-3.33,3.17-1.79L389,51.52c2.26-1.24,4.79-2.43,7.39-3.61a72.53,72.53,0,0,1,8.68-3.15A49.61,49.61,0,0,1,415.3,42.9a41.65,41.65,0,0,1,11.31.68l1.42.27,1.38.37c.91.26,1.84.51,2.75.8a45,45,0,0,1,5.11,2.16l2.41,1.25,2.21,1.37a48.3,48.3,0,0,1,4.13,3c.35.26.62.46,1,.79s1,.88,1.51,1.34A23.56,23.56,0,0,1,451.38,58c.21.27.44.55.65.84l.61.93c.39.63.76,1.25,1.13,1.89a29.07,29.07,0,0,1,1.69,4c.2.68.38,1.35.55,2,.09.34.17.69.23,1l.16,1c.09.64.16,1.29.23,1.94s.05,1.21.07,1.82,0,1.21,0,1.79l-.14,1.64c-.06.53-.1,1.11-.19,1.61L456.08,80A45,45,0,0,1,452.72,89.88Z" style="fill:#ebebeb"></path><path d="M122.88,354.35a43.33,43.33,0,0,1,.61,8.66,60.92,60.92,0,0,1-2.7,15.58A100.33,100.33,0,0,1,115.6,393a64,64,0,0,1-8,13.14,60.36,60.36,0,0,1-11.52,11.13,38,38,0,0,1-16.25,6.47,36.63,36.63,0,0,1-9.36.19,29.82,29.82,0,0,1-8.72-2.35,30.42,30.42,0,0,1-6.84-4.24,60.1,60.1,0,0,1-5.29-5,20.8,20.8,0,0,1-2.31-3,23.74,23.74,0,0,1-1.63-3.5,38.9,38.9,0,0,1-1.74-7.69,65.64,65.64,0,0,1-.18-16.4,37.05,37.05,0,0,1,5-14.81A37.5,37.5,0,0,1,58.9,356a64.76,64.76,0,0,1,13.5-7c4.74-1.88,9.33-3.65,13.69-5.71s8.58-4.35,13.89-6a23.81,23.81,0,0,1,4.35-.94,17.43,17.43,0,0,1,5.18.08,13.49,13.49,0,0,1,6.22,3,16.32,16.32,0,0,1,1.26,1.23c.37.42.74.85,1.09,1.3a21,21,0,0,1,1.65,2.62,24.67,24.67,0,0,1,1.2,2.58c.3.8.64,1.68.85,2.45l.35,1.21.29,1.17C122.61,352.84,122.74,353.58,122.88,354.35Z" style="fill:#ebebeb"></path></g><g style="opacity:0.4"><path d="M405.35,186.48c23.51-18.26,47.16-14.71,47.16-14.71s.11,23.92-21.35,44.55c-18.11,17.41-35.3,16.42-41.23,9.58S385.51,201.88,405.35,186.48Z" style="fill:#ebebeb"></path><path d="M402.74,198.29c14.9-11.58,29.89-9.32,29.89-9.32s.07,15.15-13.53,28.24c-11.48,11-22.39,10.41-26.14,6.07S390.16,208.05,402.74,198.29Z" style="fill:#fff"></path></g><path d="M413.53,204.54l-1.78-1.42a1.18,1.18,0,0,1-.19-1.66h0a1.18,1.18,0,0,1,1.66-.18L415,202.7a1.17,1.17,0,0,1,.18,1.65h0A1.17,1.17,0,0,1,413.53,204.54Z" style="fill:#ebebeb"></path><path d="M393.46,222.85l-1.24-1.91a1.18,1.18,0,0,1,.34-1.63h0a1.18,1.18,0,0,1,1.64.34l1.24,1.91a1.18,1.18,0,0,1-.35,1.63h0A1.18,1.18,0,0,1,393.46,222.85Z" style="fill:#ebebeb"></path><path d="M405.18,200.91l-1.23,0a1.18,1.18,0,0,1-1.14-1.22h0a1.18,1.18,0,0,1,1.22-1.14l1.22,0a1.17,1.17,0,0,1,1.14,1.21h0A1.18,1.18,0,0,1,405.18,200.91Z" style="fill:#ebebeb"></path><path d="M416.5,215.7l0-1.22a1.17,1.17,0,0,1,1.21-1.14h0a1.18,1.18,0,0,1,1.15,1.21l0,1.23a1.17,1.17,0,0,1-1.21,1.14h0A1.18,1.18,0,0,1,416.5,215.7Z" style="fill:#ebebeb"></path><path d="M390.43,216.06l-.14-1.21a1.19,1.19,0,0,1,1-1.31h0a1.19,1.19,0,0,1,1.31,1.05l.13,1.21a1.17,1.17,0,0,1-1,1.3h0A1.17,1.17,0,0,1,390.43,216.06Z" style="fill:#ebebeb"></path><path d="M410.28,226.72l-1.14.45a1.18,1.18,0,0,1-1.53-.67h0a1.18,1.18,0,0,1,.67-1.53l1.14-.44a1.18,1.18,0,0,1,1.53.66h0A1.17,1.17,0,0,1,410.28,226.72Z" style="fill:#ebebeb"></path><circle cx="404.66" cy="213.34" r="13.61" transform="translate(-21.16 46.18) rotate(-6.37)" style="fill:#ebebeb"></circle><path d="M398.84,205.86a3,3,0,0,0,.71,1.78,3.69,3.69,0,0,0,1.61,1.14,2.69,2.69,0,0,0,2-.06,2.79,2.79,0,0,0,1.38-1.33,4.05,4.05,0,0,1-1.54.9,2.38,2.38,0,0,1-.83.09,2.59,2.59,0,0,1-.82-.16l-.4-.16c-.13-.07-.26-.13-.38-.21a4.3,4.3,0,0,1-.69-.52A4.52,4.52,0,0,1,398.84,205.86Z" style="fill:#c7c7c7"></path><path d="M403.79,206.1a2,2,0,0,0-.43-1.27,2.46,2.46,0,0,0-1.12-.81,1.83,1.83,0,0,0-2.34,1,3,3,0,0,1,1.08-.54,1.82,1.82,0,0,1,1.06.06A3.22,3.22,0,0,1,403.79,206.1Z" style="fill:#c7c7c7"></path><path d="M409.42,214.87a1.84,1.84,0,0,0,.11,1.3,2.18,2.18,0,0,0,.9,1,1.74,1.74,0,0,0,1.37.21,1.81,1.81,0,0,0,1.07-.75,3.39,3.39,0,0,1-1.14.3,1.8,1.8,0,0,1-1-.27,2.66,2.66,0,0,1-.81-.72A3.22,3.22,0,0,1,409.42,214.87Z" style="fill:#c7c7c7"></path><path d="M412.39,216.09a1.15,1.15,0,0,0,0-.91,1.5,1.5,0,0,0-.63-.73,1.26,1.26,0,0,0-1-.14,1.17,1.17,0,0,0-.71.59,2.65,2.65,0,0,1,.79-.13,1.29,1.29,0,0,1,.61.19A2.31,2.31,0,0,1,412.39,216.09Z" style="fill:#c7c7c7"></path><path d="M413.93,211.32a1.22,1.22,0,0,0-.29.91,1.32,1.32,0,0,0,.49.91,1.19,1.19,0,0,0,1,.23,1.4,1.4,0,0,0,.8-.5,5,5,0,0,1-.84,0,1,1,0,0,1-.62-.23,1.33,1.33,0,0,1-.4-.55A2.42,2.42,0,0,1,413.93,211.32Z" style="fill:#c7c7c7"></path><path d="M415.75,212.44a.73.73,0,0,0,.27-.63.9.9,0,0,0-.35-.68.83.83,0,0,0-.76-.16.86.86,0,0,0-.54.42,4.33,4.33,0,0,1,.58.05.76.76,0,0,1,.35.15,1.09,1.09,0,0,1,.27.32A2.17,2.17,0,0,1,415.75,212.44Z" style="fill:#c7c7c7"></path><path d="M394.94,209.39a1.23,1.23,0,0,0,.39.88,1.32,1.32,0,0,0,1,.35,1.18,1.18,0,0,0,.92-.51,1.44,1.44,0,0,0,.26-.91,4.71,4.71,0,0,1-.6.59,1.15,1.15,0,0,1-.61.24,1.35,1.35,0,0,1-.67-.14A2.65,2.65,0,0,1,394.94,209.39Z" style="fill:#c7c7c7"></path><path d="M397.05,209a.77.77,0,0,0-.22-.65.93.93,0,0,0-.71-.28.87.87,0,0,0-.8,1.06c.18-.14.32-.26.46-.35a.93.93,0,0,1,.37-.12,1,1,0,0,1,.41.07A2,2,0,0,1,397.05,209Z" style="fill:#c7c7c7"></path><path d="M403.56,217.73a3,3,0,1,1,1.06-4.12A3,3,0,0,1,403.56,217.73Z" style="fill:#dbdbdb"></path><path d="M400.47,213.88a2.73,2.73,0,0,0-1.33,2.08,3,3,0,1,1,5.38.86,2.73,2.73,0,0,0-4-2.94Z" style="fill:#c7c7c7"></path><path d="M398,216.1a3.93,3.93,0,0,0,.91,2.16,4.63,4.63,0,0,0,2,1.37,3.32,3.32,0,0,0,2.44,0A3.57,3.57,0,0,0,405,218a4.61,4.61,0,0,1-1.88,1.16,3.25,3.25,0,0,1-.52.12,2.35,2.35,0,0,1-.53,0,3.09,3.09,0,0,1-1-.2l-.5-.2c-.16-.09-.32-.16-.47-.26a5.11,5.11,0,0,1-.87-.66A5.7,5.7,0,0,1,398,216.1Z" style="fill:#c7c7c7"></path><path d="M394.81,217.6a1.12,1.12,0,0,1-.75-2.12,1.14,1.14,0,0,1,1.43.69A1.12,1.12,0,0,1,394.81,217.6Z" style="fill:#dbdbdb"></path><path d="M394,216a1,1,0,0,0-.63.67,1.11,1.11,0,0,1,.74-1.16,1.14,1.14,0,0,1,1.43.69,1.12,1.12,0,0,1-.27,1.17,1,1,0,0,0,0-.74A1,1,0,0,0,394,216Z" style="fill:#c7c7c7"></path><path d="M392.87,216.61a1.4,1.4,0,0,0,.15.87,1.76,1.76,0,0,0,.64.66,1.24,1.24,0,0,0,.92.15,1.27,1.27,0,0,0,.74-.49,2,2,0,0,1-.78.26,1.24,1.24,0,0,1-.73-.18A2,2,0,0,1,392.87,216.61Z" style="fill:#c7c7c7"></path><path d="M403.29,224a1.6,1.6,0,1,1,1.31-1.84A1.59,1.59,0,0,1,403.29,224Z" style="fill:#dbdbdb"></path><path d="M402.49,221.49a1.44,1.44,0,0,0-1.05.78,1.59,1.59,0,0,1,3.16-.13,1.61,1.61,0,0,1-.66,1.58,1.49,1.49,0,0,0,.22-1A1.45,1.45,0,0,0,402.49,221.49Z" style="fill:#c7c7c7"></path><path d="M400.83,222.11a2.1,2.1,0,0,0,.05,1.24,2.37,2.37,0,0,0,.71,1.05,1.83,1.83,0,0,0,1.21.44,1.9,1.9,0,0,0,1.16-.46,2.47,2.47,0,0,1-1.15.23,1.77,1.77,0,0,1-1-.43,2.71,2.71,0,0,1-.7-.91A2.85,2.85,0,0,1,400.83,222.11Z" style="fill:#c7c7c7"></path><path d="M408.65,207.86a2.71,2.71,0,1,0,.56-3.55A2.55,2.55,0,0,0,408.65,207.86Z" style="fill:#dbdbdb"></path><path d="M412.37,205.52a2.09,2.09,0,0,1,.34,2,2.47,2.47,0,0,0,.09-3.08,2.56,2.56,0,0,0-3.59-.12,2.73,2.73,0,0,0-1,2.6,2.62,2.62,0,0,1,.91-1.5A2.31,2.31,0,0,1,412.37,205.52Z" style="fill:#c7c7c7"></path><path d="M407.57,206.15a2.63,2.63,0,0,0-.13,2,2.46,2.46,0,0,0,.55.9,2.49,2.49,0,0,0,1.89.85,3.15,3.15,0,0,0,1-.14,4.2,4.2,0,0,0,1.7-1,8.76,8.76,0,0,1-1.8.53,3.16,3.16,0,0,1-1.71-.17,2.81,2.81,0,0,1-.7-.48,2.16,2.16,0,0,1-.52-.68A3.45,3.45,0,0,1,407.57,206.15Z" style="fill:#c7c7c7"></path></g><g id="freepik--Rocket--inject-83"><path d="M233.64,122.84c-.71-.85-41.85-19.93-79.11,8.5-34.25,26.14-46.14,75.27-41.59,76.45,5.57,1.44,20.83-22,50.12-34.89,10.39-4.57,26.92,0,26.92,0Z" style="fill:#232554"></path><path d="M190,172.89a65.08,65.08,0,0,0-15-2c6.46-13.52,18.52-38.74,26.35-55.08,18.43.17,31.93,6.56,32.34,7Z" style="opacity:0.1"></path><path d="M301.41,202.77c.72.84,12.82,44.55-21.33,76.65-31.39,29.52-81.8,33.21-82.22,28.53-.51-5.73,25.12-16.95,42.62-43.74,6.2-9.5,4.41-26.56,4.41-26.56Z" style="fill:#232554"></path><path d="M303,236.05l-58.66,17.07a65.15,65.15,0,0,0,.51-15.47l56.52-34.88C301.82,203.25,306,217.74,303,236.05Z" style="opacity:0.1"></path><path d="M205.63,256.2l-40.18-47.39s21-56.19,70.76-93.93c24.87-18.83,54-32.92,80.17-42.24C352.43,59.72,382.59,56,387.26,61.48s-4,34.66-22.58,68.13c-13.49,24.21-32.17,50.69-54.81,72.15C264.49,244.72,205.63,256.2,205.63,256.2Z" style="fill:#c7c7c7"></path><path d="M303.24,181.47A35.83,35.83,0,1,1,307.4,131,35.84,35.84,0,0,1,303.24,181.47Z" style="fill:#a6a6a6"></path><path d="M305.2,178.14a35.83,35.83,0,1,1,4.16-50.5A35.84,35.84,0,0,1,305.2,178.14Z" style="fill:#232554"></path><path d="M298.11,169.75a24.85,24.85,0,1,1,2.86-35A24.85,24.85,0,0,1,298.11,169.75Z" style="fill:#fff"></path><path d="M298.12,169.75a24.83,24.83,0,0,1-7.95,4.55l-20-1.63a24.68,24.68,0,0,1-7.1-5.78,24.36,24.36,0,0,1-3.61-5.65l43.1,3.51A24.49,24.49,0,0,1,298.12,169.75Z" style="fill:#ebebeb"></path><path d="M303.12,137.68l-39.78-3.24a24.29,24.29,0,0,1,2.6-2.57,24.84,24.84,0,0,1,35,2.86A24.11,24.11,0,0,1,303.12,137.68Z" style="fill:#ebebeb"></path><path d="M305.28,159.6l-47.6-3.89a20,20,0,0,1-.35-2.21l48.64,4C305.78,158.18,305.54,158.89,305.28,159.6Z" style="fill:#ebebeb"></path><path d="M364.68,129.61l-48.3-57C352.43,59.72,382.59,56,387.26,61.48S383.3,96.14,364.68,129.61Z" style="fill:#232554"></path><path d="M330.58,77.45a2.09,2.09,0,1,1,.24-2.94A2.09,2.09,0,0,1,330.58,77.45Z" style="fill:#fff"></path><path d="M339.17,87.59a2.09,2.09,0,1,1-2.7-3.19,2.09,2.09,0,0,1,2.7,3.19Z" style="fill:#fff"></path><path d="M347.76,97.72a2.09,2.09,0,1,1,.25-3A2.08,2.08,0,0,1,347.76,97.72Z" style="fill:#fff"></path><path d="M356.36,107.86a2.09,2.09,0,1,1,.24-3A2.09,2.09,0,0,1,356.36,107.86Z" style="fill:#fff"></path><path d="M365,118a2.09,2.09,0,1,1,.24-2.95A2.09,2.09,0,0,1,365,118Z" style="fill:#fff"></path><path d="M177,207.7a2.09,2.09,0,0,1-2.7-3.19,2.09,2.09,0,1,1,2.7,3.19Z" style="fill:#a6a6a6"></path><path d="M185.64,217.84a2.09,2.09,0,1,1,.24-3A2.09,2.09,0,0,1,185.64,217.84Z" style="fill:#a6a6a6"></path><path d="M194.23,228a2.09,2.09,0,1,1,.24-2.95A2.09,2.09,0,0,1,194.23,228Z" style="fill:#a6a6a6"></path><path d="M202.82,238.11a2.09,2.09,0,1,1,.24-3A2.09,2.09,0,0,1,202.82,238.11Z" style="fill:#a6a6a6"></path><path d="M211.41,248.24a2.09,2.09,0,1,1,.25-3A2.08,2.08,0,0,1,211.41,248.24Z" style="fill:#a6a6a6"></path><path d="M385,60.07c-27.82,2-76,18.84-126.69,58.6-37.46,29.37-64.79,80.77-77.53,108.22l-15.33-18.08s21-56.19,70.76-93.93c24.87-18.83,54-32.92,80.17-42.24C348.69,61.05,376.26,56.85,385,60.07Z" style="fill:#fff;opacity:0.2"></path><polygon points="187.68 263.92 155.01 225.38 167.72 211.49 203.46 253.65 187.68 263.92" style="fill:#232554"></polygon><polygon points="203.46 253.65 195.77 258.65 162.86 216.8 167.72 211.5 203.46 253.65" style="opacity:0.1"></polygon><polygon points="364.17 134.76 349.24 133.76 342.22 147.98 342.86 132.14 329.28 125.86 344.36 126.01 351.22 112.64 350.86 127.66 364.17 134.76" style="fill:#fcfcfc"></polygon><polygon points="360.5 79.61 352.15 79.06 348.23 87.01 348.59 78.15 341 74.64 349.43 74.72 353.26 67.25 353.06 75.65 360.5 79.61" style="fill:#fcfcfc"></polygon><polygon points="292.98 249.13 284.64 248.57 280.72 256.52 281.07 247.67 273.48 244.16 281.91 244.24 285.75 236.77 285.54 245.17 292.98 249.13" style="fill:#fcfcfc"></polygon><polygon points="144.46 175.38 136.11 174.82 132.19 182.77 132.55 173.92 124.96 170.41 133.39 170.49 137.22 163.02 137.02 171.41 144.46 175.38" style="fill:#fcfcfc"></polygon><path d="M180.5,255.32c-15.15,10.21-28.52,23.24-38.28,38.81a104.42,104.42,0,0,0-16.39,52.25,95.75,95.75,0,0,0,3.41,27.88,99.77,99.77,0,0,0,11.56,26.2A114.55,114.55,0,0,0,159.41,423a144.89,144.89,0,0,0,23.72,18,146,146,0,0,1-26-15.31,119.07,119.07,0,0,1-22-21.18,107.34,107.34,0,0,1-23.22-57.64c-1.88-21.31,2.62-43.18,11.94-62.69s23.25-36.84,39.71-51Z" style="fill:#232554;opacity:0.6000000000000001"></path><polygon points="154.59 278.55 148.63 279.65 147.3 285.93 145.97 279.65 140.01 278.54 145.95 277.09 147.3 271.16 148.66 277.09 154.59 278.55" style="fill:#fff"></polygon><polygon points="132.66 396.18 129.33 396.8 128.59 400.31 127.84 396.8 124.51 396.18 127.83 395.37 128.59 392.06 129.35 395.37 132.66 396.18" style="fill:#fff"></polygon><polygon points="130.87 365.71 127.54 366.32 126.8 369.84 126.06 366.32 122.72 365.71 126.04 364.9 126.8 361.58 127.56 364.9 130.87 365.71" style="fill:#fff"></polygon><polygon points="150.19 258.96 146.86 259.58 146.11 263.09 145.37 259.58 142.04 258.96 145.36 258.15 146.11 254.84 146.87 258.15 150.19 258.96" style="fill:#fff"></polygon><path d="M140.54,403.78a1,1,0,0,0,0,1.93A1,1,0,0,0,140.54,403.78Z" style="fill:#fff"></path><path d="M168.1,254.26a1,1,0,0,0,0,1.93A1,1,0,0,0,168.1,254.26Z" style="fill:#fff"></path><path d="M116.12,340.37a1,1,0,0,0,0,1.93A1,1,0,0,0,116.12,340.37Z" style="fill:#fff"></path><path d="M138.82,398.75a.69.69,0,0,0,0,1.37A.69.69,0,0,0,138.82,398.75Z" style="fill:#fff"></path><path d="M115.77,306.63a.68.68,0,0,0,0,1.36A.68.68,0,0,0,115.77,306.63Z" style="fill:#fff"></path><path d="M122.72,376.49a1.86,1.86,0,0,0,0,3.71A1.86,1.86,0,0,0,122.72,376.49Z" style="fill:#fff"></path><path d="M124.51,300.35a1.85,1.85,0,0,0,0,3.7A1.85,1.85,0,0,0,124.51,300.35Z" style="fill:#fff"></path></g></svg>